<svg id="icons" xmlns="http://www.w3.org/2000/svg" viewBox="0 0 64 64"><defs><style>.cls-1{fill:none;stroke:#b99272;stroke-linecap:round;stroke-linejoin:round;stroke-width:2px;}</style></defs><title>barrel</title><g id="barrel"><path class="cls-1" d="M3.93,41.58V22.42s20.8-13.93,41.61,0V41.58"/><path class="cls-1" d="M45.54,41.58s-20.8,13.93-41.61,0"/><path class="cls-1" d="M45.54,36S24.74,49.91,3.93,36"/><path class="cls-1" d="M3.93,27.91s20.8-13.93,41.61,0"/><line class="cls-1" x1="3.93" y1="32" x2="45.54" y2="32"/><rect class="cls-1" x="45.54" y="32" width="3.46" height="8.06"/><rect class="cls-1" x="48.99" y="34.06" width="4.04" height="3.85"/><path class="cls-1" d="M53,37.91c4.06,0,3.46,4,3.46,4H60C60,34.26,53,34.06,53,34.06V28.12"/><line class="cls-1" x1="49.97" y1="28.12" x2="56.04" y2="28.12"/><polyline class="cls-1" points="9.93 44.87 9.93 52.02 19.84 52.02 19.84 47.53"/><polyline class="cls-1" points="38.16 45.15 38.16 52.02 28.25 52.02 28.25 47.53"/><line class="cls-1" x1="13.84" y1="18.01" x2="13.84" y2="46.3"/><line class="cls-1" x1="34.76" y1="17.45" x2="34.76" y2="46.25"/></g></svg>