<svg data-v-423bf9ae="" xmlns="http://www.w3.org/2000/svg" viewBox="0 0 560 90" class="iconLeft"><!----><!----><!----><g data-v-423bf9ae="" id="41ea01df-6151-470a-879d-752c024473e6" fill="#ffffff" transform="matrix(4.354136212645278,0,0,4.354136212645278,109.87457122738834,14.521045361930994)"><path d="M0.28 0.81L0.81 0.87C1.18 0.91 1.26 0.98 1.26 1.51L1.26 10.56L1.51 10.67L2.07 10.12C2.56 10.40 3.15 10.67 4.20 10.67C6.06 10.67 7.69 9.77 7.69 6.92C7.69 6.05 7.50 3.47 4.98 3.47C3.92 3.47 3.09 4.16 2.58 4.47L2.58 0.20L2.48 0.11L0.28 0.46ZM2.58 8.22L2.58 6.01C2.58 5.66 2.60 5.43 2.72 5.21C3.05 4.54 3.64 4.23 4.42 4.23C5.00 4.23 6.23 4.56 6.23 7C6.23 9.06 5.60 10.18 4.21 10.18C3.47 10.18 2.93 9.80 2.67 9.10C2.59 8.85 2.58 8.55 2.58 8.22ZM9.06 7.07C9.06 9.34 10.16 10.67 12.42 10.67C14.67 10.67 15.78 9.34 15.78 7.07C15.78 4.80 14.67 3.47 12.42 3.47C10.16 3.47 9.06 4.80 9.06 7.07ZM10.51 7.07C10.51 5.14 11.13 3.96 12.42 3.96C13.71 3.96 14.32 5.14 14.32 7.07C14.32 9.00 13.71 10.18 12.42 10.18C11.13 10.18 10.51 9.00 10.51 7.07ZM16.81 4.17L17.35 4.24C17.71 4.30 17.79 4.37 17.79 4.87L17.79 8.57C17.79 10.18 18.75 10.67 19.78 10.67C20.97 10.67 21.94 9.86 22.34 9.66L22.48 10.50L24.72 10.50L24.72 10.09C23.76 10.02 23.67 10.00 23.67 9.28L23.67 3.56L23.58 3.47L21.38 3.82L21.38 4.17L21.91 4.24C22.27 4.30 22.36 4.37 22.36 4.87L22.36 8.02C22.36 8.41 22.32 8.72 22.25 8.86C21.92 9.51 21.25 9.91 20.52 9.91C19.71 9.91 19.11 9.41 19.11 8.32L19.11 3.56L19.01 3.47L16.81 3.82ZM25.38 10.50L29.08 10.50L29.08 10.09C27.83 10.02 27.75 10.00 27.75 9.28L27.75 6.01C27.75 4.93 28.22 4.56 28.55 4.56C28.77 4.56 29.01 4.65 29.41 4.87C29.51 4.93 29.62 4.94 29.69 4.94C30.03 4.94 30.34 4.59 30.34 4.16C30.34 3.85 30.14 3.47 29.60 3.47C29.09 3.47 28.67 3.78 27.75 4.59L27.58 3.47L25.45 3.82L25.45 4.17L25.98 4.24C26.35 4.30 26.43 4.37 26.43 4.87L26.43 9.28C26.43 10.00 26.36 10.02 25.38 10.09ZM30.66 0.81L31.19 0.87C31.56 0.91 31.64 0.98 31.64 1.51L31.64 10.56L31.89 10.67L32.45 10.12C32.94 10.40 33.53 10.67 34.58 10.67C36.44 10.67 38.07 9.77 38.07 6.92C38.07 6.05 37.88 3.47 35.36 3.47C34.30 3.47 33.47 4.16 32.96 4.47L32.96 0.20L32.86 0.11L30.66 0.46ZM32.96 8.22L32.96 6.01C32.96 5.66 32.98 5.43 33.10 5.21C33.43 4.54 34.02 4.23 34.80 4.23C35.38 4.23 36.61 4.56 36.61 7C36.61 9.06 35.98 10.18 34.59 10.18C33.85 10.18 33.31 9.80 33.05 9.10C32.97 8.85 32.96 8.55 32.96 8.22ZM39.44 7.07C39.44 9.34 40.54 10.67 42.80 10.67C45.05 10.67 46.16 9.34 46.16 7.07C46.16 4.80 45.05 3.47 42.80 3.47C40.54 3.47 39.44 4.80 39.44 7.07ZM40.89 7.07C40.89 5.14 41.51 3.96 42.80 3.96C44.09 3.96 44.70 5.14 44.70 7.07C44.70 9.00 44.09 10.18 42.80 10.18C41.51 10.18 40.89 9.00 40.89 7.07ZM47.28 10.50L50.69 10.50L50.69 10.09C49.70 10.02 49.64 10.00 49.64 9.28L49.64 6.01C49.64 5.66 49.67 5.46 49.78 5.24C50.08 4.69 50.71 4.23 51.45 4.23C52.40 4.23 52.92 4.76 52.92 5.98L52.92 9.28C52.92 10.00 52.88 10.02 51.87 10.09L51.87 10.50L55.29 10.50L55.29 10.09C54.29 10.02 54.24 10.00 54.24 9.28L54.24 5.70C54.24 4.28 53.47 3.47 52.18 3.47C51.14 3.47 50.50 3.98 49.63 4.54L49.43 3.47L47.35 3.82L47.35 4.17L47.88 4.24C48.24 4.30 48.33 4.37 48.33 4.87L48.33 9.28C48.33 10.00 48.29 10.02 47.28 10.09ZM59.30 8.16L59.44 10.00C59.95 10.44 60.80 10.67 61.63 10.67C63.29 10.67 64.25 9.79 64.25 8.60C64.25 7.36 63.49 6.80 62.05 6.36C61.47 6.17 60.55 5.88 60.55 5.10C60.55 4.37 61.11 3.96 61.81 3.96C62.80 3.96 63.28 4.73 63.38 5.59L63.78 5.59L63.78 3.95C63.32 3.61 62.61 3.47 61.98 3.47C60.47 3.47 59.43 4.19 59.43 5.52C59.43 6.68 60.38 7.20 61.54 7.55C62.17 7.74 63.06 8.06 63.06 9.02C63.06 9.73 62.50 10.18 61.75 10.18C60.62 10.18 59.99 9.35 59.71 8.16ZM65.44 7.07C65.44 9.34 66.54 10.67 68.80 10.67C71.05 10.67 72.16 9.34 72.16 7.07C72.16 4.80 71.05 3.47 68.80 3.47C66.54 3.47 65.44 4.80 65.44 7.07ZM66.89 7.07C66.89 5.14 67.51 3.96 68.80 3.96C70.08 3.96 70.70 5.14 70.70 7.07C70.70 9.00 70.08 10.18 68.80 10.18C67.51 10.18 66.89 9.00 66.89 7.07ZM73.51 7.14C73.51 9.48 74.66 10.67 76.76 10.67C77.74 10.67 79.06 10.15 79.45 8.65L79.04 8.46C78.61 9.44 78.05 9.94 77.03 9.94C75.36 9.94 74.97 8.20 74.97 6.89C74.97 4.80 75.80 3.96 76.76 3.96C77.41 3.96 77.81 4.42 78.09 5.18C78.18 5.40 78.26 5.54 78.53 5.54C78.81 5.54 79.35 5.36 79.35 4.83C79.35 4.19 78.43 3.47 76.92 3.47C74.37 3.47 73.51 5.28 73.51 7.14ZM81.06 1.34C81.06 1.85 81.41 2.20 81.91 2.20C82.42 2.20 82.77 1.85 82.77 1.34C82.77 0.84 82.42 0.49 81.91 0.49C81.41 0.49 81.06 0.84 81.06 1.34ZM80.22 10.50L83.64 10.50L83.64 10.09C82.64 10.02 82.59 10.00 82.59 9.28L82.59 3.56L82.49 3.47L80.29 3.82L80.29 4.17L80.82 4.24C81.19 4.30 81.27 4.37 81.27 4.87L81.27 9.28C81.27 10.00 81.23 10.02 80.22 10.09ZM84.53 7.13C84.53 9.34 85.48 10.67 87.77 10.67C89.32 10.67 90.12 9.80 90.50 8.69L90.08 8.47C89.68 9.28 89.15 9.95 88.05 9.95C86.31 9.95 85.96 8.27 85.99 6.82L90.02 6.82C90.31 6.82 90.58 6.75 90.58 6.29C90.58 5.46 90.31 3.47 87.75 3.47C85.57 3.47 84.53 5.03 84.53 7.13ZM86.00 6.29C86.00 5.71 86.21 3.96 87.67 3.96C88.97 3.96 89.12 5.29 89.12 5.84C89.12 6.10 89.04 6.29 88.65 6.29ZM91.48 4.20L92.48 4.20L92.48 9.07C92.48 10.50 93.55 10.67 94.04 10.67C94.75 10.67 95.42 10.30 95.83 10.05L95.72 9.76C95.38 9.90 95.07 9.94 94.72 9.94C94.25 9.94 93.80 9.60 93.80 8.54L93.80 4.20L95.61 4.20L95.61 3.64L93.80 3.64L93.80 1.88L93.39 1.88L92.54 3.64L91.48 3.64ZM95.79 4.05C96.46 4.07 96.60 4.16 96.85 4.77C97.55 6.45 98.71 9.44 99.05 10.40C99.13 10.64 99.16 10.85 99.16 11.09C99.16 11.41 99.04 11.83 98.83 12.28C98.62 12.74 98.36 12.87 98.21 12.87C98.07 12.87 97.94 12.82 97.69 12.57C97.55 12.45 97.44 12.38 97.27 12.38C97.01 12.38 96.66 12.75 96.66 13.16C96.66 13.50 97.05 13.89 97.64 13.89C98.20 13.89 98.91 13.72 99.62 11.65C100.49 9.16 101.78 5.74 102.21 4.76C102.47 4.20 102.55 4.09 103.25 4.05L103.25 3.64L100.56 3.64L100.56 4.05L101.29 4.12C101.53 4.14 101.56 4.31 101.49 4.59C101.28 5.43 100.55 7.55 99.93 9.23L99.90 9.23C99.26 7.53 98.70 6.01 98.18 4.54C98.10 4.28 98.07 4.13 98.39 4.10L98.99 4.05L98.99 3.64L95.79 3.64Z"></path></g><!----><g data-v-423bf9ae="" id="f9d9947e-38cd-4498-a651-b132d3a8d064" transform="matrix(1.0193331882798389,0,0,1.0193331882798389,-4.6496619320096855,-5.113157163391939)" stroke="none" fill="#583936"><path d="M83.792 43.769c-2.476-1.656-5.974-2.787-10.396-3.361-4.319-.561-8.032-.533-11.367.077-2.198.402-4.373 1.002-6.293 1.735a61.5 61.5 0 00-1.854.754.955.955 0 00-.16-.539c-.23-.35-.588-.464-1.358-.48-.172-.369-.513-.536-1.102-.698l-.138-.038a9.282 9.282 0 00-1.153-.26l-.291-.043c-1.215-.181-2.471-.367-3.735.459-.281.185-.587.29-.941.411-.31.107-.617.215-.916.367l-.182.092c-.635.32-1.354.683-1.918 1.168l-.531.457c-8.387-.2-17.562.833-24.294 6.194-2.193 1.748-2.902 3.654-2.664 5.482l1.03 14.047c0 4.592 16.233 10.418 34.479 10.418 18.245 0 34.479-5.826 34.478-10.393.185-3.975 1.104-23.801 1.105-23.895.006-.221.022-.736-1.799-1.954zM27.375 54.107c-.074.256-.158.545-.194.861-.022.199-.092.412-.156.627-.07.232-.133.488-.18.75a34.525 34.525 0 01-3.102.615c.171-.197.331-.414.455-.672.236-.492.503-.67 1.034-1.02.158-.104.326-.215.508-.344.664-.469.977-1.033 1.254-1.529.11-.201.219-.377.337-.541.01.172.058.344.17.523.034.176-.04.434-.126.73zm2.81 1.291c-.509.17-1.01.311-1.513.459a4.31 4.31 0 00.154-.701c.022-.201.084-.396.14-.586.128-.441.272-.939.161-1.51a1.602 1.602 0 00-.107-.346 1.96 1.96 0 01.131-.229c.142-.225.337-.533.365-.963a1.21 1.21 0 00-.01-.264 3.03 3.03 0 01.47.004c.325.014.65-.029.962-.067.327-.04.668-.081.89-.038.232.047.399.113.554.176.37.145.79.314 1.526.236.88-.086 1.422-.029 2.072.219l.23.084c.208.07.27.096.309.141.021.023.186.164.426.359-2.175 1.181-4.419 2.239-6.76 3.026zm9.443-7.968l-.014.242c-.005.056-.049.128-.15.278-.163.241-.41.607-.435 1.143-.005.125.01.241.034.374-.08.084-.176.193-.253.33-.162.284-.4 1.049-.225 1.661-.027.014-.055.031-.082.047-.36-.273-.66-.509-.744-.588-.334-.379-.711-.508-1.014-.611l-.177-.062c-1.032-.394-1.876-.412-2.823-.32-.342.035-.473-.019-.76-.13a4.515 4.515 0 00-.835-.258c-.482-.095-.979-.035-1.416.019-.24.029-.473.064-.789.051-.506-.024-1.437-.06-1.997.898a4.519 4.519 0 01-.447.226c-.383.169-.818.36-1.18.737-.36.377-.582.775-.776 1.127-.228.408-.406.73-.762.982-.165.117-.319.219-.463.312-.607.4-1.182.779-1.616 1.686-.159.332-.484.596-.861.902a6.983 6.983 0 00-.848.775c-.301.014-.67.029-1.099.029-1.574 0-2.771-.205-3.511-.578a4.732 4.732 0 01-.266-2.334c.443-3.256 5.282-5.236 7.854-6.267 5.331-2.137 11.009-2.665 16.69-2.583l-.005.056c0 .041.001.082-.002.106-.033.152-.036.161-.25.337-.605.498-.752.762-.778 1.413zm.888 2.889a1.29 1.29 0 00.186-.363c.091-.296.036-.566-.017-.791.003-.062.046-.132.152-.289.165-.244.391-.579.429-1.077l.018-.302.001-.054c.045-.041.103-.087.176-.147a4.35 4.35 0 00.202-.178l.319.333c.062.062.132.131.137.207.019.16.045.402.184.642.166.284.391.446.626.549-.798.491-1.603.982-2.413 1.47zm6.005-3.652c-.488.289-.972.59-1.458.885l-.006-.162-.757-.039a5.703 5.703 0 00-.37 0c-.054.001-.118.008-.181.002a1.478 1.478 0 00-.184-.565l-.01-.018c.084-.141.149-.305.169-.494a1.119 1.119 0 00-.186-.762c.008-.073.02-.159.028-.226.035-.257.086-.628.022-.995.335-.206.712-.396 1.06-.572l.187-.094c.229-.116.466-.195.703-.276.4-.138.855-.294 1.31-.591.704-.459 1.406-.382 2.586-.208l.3.044c.33.047.633.131.951.218l.155.042.016.004.042.775.828-.022.185-.004c-.008.073.003.152.011.231a60.865 60.865 0 00-5.401 2.827z"></path><path d="M94.683 15.562c0-7.123-26.722-9.709-44.683-9.709S5.317 8.439 5.317 15.562c0 .019.007.037.007.057h-.005L8.63 80.102c0 4.258 9.581 8.107 12.518 9.186C26.09 91.102 36.411 94.146 50 94.146c13.588 0 23.91-3.045 28.853-4.859 2.937-1.078 12.518-4.928 12.516-9.129l3.313-64.54h-.006c0-.019.007-.037.007-.056zM10.837 80.045l-.155-3.023c3.075 2.539 8.158 4.543 10.168 5.271 1.253.455 2.85.99 4.754 1.531-.836 1.273-1.676 2.549-2.507 3.828-7.611-2.609-12.259-5.781-12.26-7.607zm16.366 8.871a68.598 68.598 0 01-2.263-.66c.104-.111.207-.223.306-.34.938-1.104 1.771-2.303 2.62-3.486a76.49 76.49 0 002.3.553c-.995 1.296-1.951 2.642-2.963 3.933zm62.295-15.373C88.205 77.199 71.56 84.945 50 84.945c-21.557 0-38.199-7.744-39.497-11.4l-2.8-54.554c.881.572 1.999 1.115 3.382 1.631 2.465.918 5.689 1.735 9.585 2.429 3.459.613 7.363 1.112 11.603 1.483 5.598.49 11.562.738 17.728.738 8.004 0 15.83-.43 22.634-1.242 7.143-.852 12.922-2.087 16.71-3.572 1.192-.468 2.163-.959 2.953-1.474l-2.8 54.559zm2.974-57.969c-.009.425-.502 1.053-1.704 1.763-.062-.042-.114-.095-.187-.125-6.405-2.666-16.315-4.018-29.455-4.018a1.104 1.104 0 000 2.208c3.902 0 7.503.122 10.802.359l11.368 1.54a42.35 42.35 0 014.693 1.296c-3.621 1.33-8.986 2.448-15.617 3.238-6.719.803-14.455 1.227-22.372 1.227-6.102 0-12.002-.246-17.535-.729-4.175-.366-8.014-.856-11.409-1.458-3.764-.67-6.859-1.452-9.199-2.324-3.181-1.185-4.32-2.315-4.329-2.982v-.014C7.548 12.424 23.701 8.062 50 8.062c26.291 0 42.442 4.36 42.473 7.492l-.001.02z"></path><circle cx="57.057" cy="14.299" r="1.274"></circle></g><!----></svg>