<svg id="icons" xmlns="http://www.w3.org/2000/svg" viewBox="0 0 64 64"><defs><style>.cls-1{fill:none;stroke:#b99272;stroke-linecap:round;stroke-linejoin:round;stroke-width:2px;}</style></defs><title>waiter 2_1</title><g id="waiter_2" data-name="waiter 2"><path class="cls-1" d="M39.47,19.63c0,5.05-3.42,13.56-7.62,13.56s-7.69-8.5-7.69-13.55"/><path class="cls-1" d="M43.35,17.93c0,1.25-5.2,2.26-11.61,2.26a49.55,49.55,0,0,1-6.91-.44l-.67-.11c-2.47-.42-4-1-4-1.71s1.85-1.41,4.71-1.82V5.87H38.43V16.08C41.4,16.49,43.35,17.17,43.35,17.93Z"/><line class="cls-1" x1="38.4" y1="10.61" x2="24.8" y2="10.61"/><path class="cls-1" d="M51,48.08v8.1H12.43v-8.1A11.31,11.31,0,0,1,23.75,36.77h1L32,44.06l7.17-7.29h.61A11.31,11.31,0,0,1,51,48.08Z"/><polyline class="cls-1" points="24.76 36.77 24.76 44.07 31.95 44.06 31.95 56.18"/><polyline class="cls-1" points="39.12 36.77 39.12 44.06 31.95 44.06"/><line class="cls-1" x1="19.81" y1="48.51" x2="19.81" y2="56.19"/><line class="cls-1" x1="43.75" y1="48.51" x2="43.75" y2="56.19"/><line class="cls-1" x1="22.84" y1="51.17" x2="29.04" y2="51.17"/></g></svg>